<svg version="1.1" id="Layer_1" xmlns="http://www.w3.org/2000/svg" xmlns:xlink="http://www.w3.org/1999/xlink" x="0px" y="0px"
	 width="100%" viewBox="0 0 260 216" enable-background="new 0 0 260 216" xml:space="preserve">
<path fill="#000000" opacity="1.000000" stroke="none" 
	d="
M183.000000,217.000000 
	C122.000000,217.000000 61.500008,217.000000 1.000008,217.000000 
	C1.000005,145.000015 1.000005,73.000015 1.000003,1.000018 
	C87.666656,1.000012 174.333313,1.000012 261.000000,1.000006 
	C261.000000,72.999985 261.000000,144.999969 261.000000,216.999969 
	C235.166672,217.000000 209.333328,217.000000 183.000000,217.000000 
M166.459198,192.024872 
	C183.115738,186.168060 197.102356,176.536392 207.958664,162.535034 
	C219.105469,148.159027 225.854233,131.803864 226.844711,113.746529 
	C228.354370,86.223618 219.377701,62.183628 199.344376,42.912888 
	C175.780273,20.245775 147.664841,12.533853 115.845314,19.650631 
	C96.902084,23.887484 81.085808,33.762447 68.585320,48.824917 
	C49.203964,72.178497 42.723454,98.765884 49.599224,128.154175 
	C55.327583,152.638245 69.305794,171.776505 91.149170,184.424911 
	C114.681511,198.051392 139.663971,200.850555 166.459198,192.024872 
z"/>
<path fill="#454C4A" opacity="1.000000" stroke="none" 
	d="
M166.069687,192.111542 
	C139.663971,200.850555 114.681511,198.051392 91.149170,184.424911 
	C69.305794,171.776505 55.327583,152.638245 49.599224,128.154175 
	C42.723454,98.765884 49.203964,72.178497 68.585320,48.824917 
	C81.085808,33.762447 96.902084,23.887484 115.845314,19.650631 
	C147.664841,12.533853 175.780273,20.245775 199.344376,42.912888 
	C219.377701,62.183628 228.354370,86.223618 226.844711,113.746529 
	C225.854233,131.803864 219.105469,148.159027 207.958664,162.535034 
	C197.102356,176.536392 183.115738,186.168060 166.069687,192.111542 
M101.673935,61.989155 
	C92.932793,62.015636 91.943413,62.850834 92.148506,70.030106 
	C93.382759,113.235008 128.181686,149.116074 171.494751,151.843735 
	C181.147247,152.451599 182.008194,151.629028 182.009216,141.797714 
	C182.009338,140.631454 182.009232,139.465195 182.009232,138.298935 
	C182.009262,125.304474 181.627655,126.780457 169.066315,123.532654 
	C158.141220,120.707909 151.400787,123.643562 145.149719,131.654663 
	C144.446274,132.556168 141.968338,133.168121 141.045349,132.638519 
	C127.832748,125.057182 117.238831,114.882591 109.987709,100.003212 
	C112.958023,97.365433 115.966667,94.501549 119.182907,91.893684 
	C122.154785,89.483948 122.732605,86.653275 121.991142,83.030510 
	C121.030609,78.337448 120.364075,73.570221 119.842773,68.805191 
	C119.322006,64.045021 117.252495,61.511906 112.118782,61.939846 
	C108.975037,62.201904 105.791679,61.988827 101.673935,61.989155 
z"/>
<path fill="#F9F9F6" opacity="1.000000" stroke="none" 
	d="
M102.150024,61.989143 
	C105.791679,61.988827 108.975037,62.201904 112.118782,61.939846 
	C117.252495,61.511906 119.322006,64.045021 119.842773,68.805191 
	C120.364075,73.570221 121.030609,78.337448 121.991142,83.030510 
	C122.732605,86.653275 122.154785,89.483948 119.182907,91.893684 
	C115.966667,94.501549 112.958023,97.365433 109.987709,100.003212 
	C117.238831,114.882591 127.832748,125.057182 141.045349,132.638519 
	C141.968338,133.168121 144.446274,132.556168 145.149719,131.654663 
	C151.400787,123.643562 158.141220,120.707909 169.066315,123.532654 
	C181.627655,126.780457 182.009262,125.304474 182.009232,138.298935 
	C182.009232,139.465195 182.009338,140.631454 182.009216,141.797714 
	C182.008194,151.629028 181.147247,152.451599 171.494751,151.843735 
	C128.181686,149.116074 93.382759,113.235008 92.148506,70.030106 
	C91.943413,62.850834 92.932793,62.015636 102.150024,61.989143 
M172.028214,137.510513 
	C171.113342,136.335648 170.425095,134.723709 169.223969,134.100922 
	C167.844879,133.385834 165.865219,133.889999 164.401535,133.266083 
	C159.128082,131.018204 156.287613,133.721741 153.394852,138.425049 
	C158.902222,139.526459 163.894104,140.468338 168.858139,141.539307 
	C171.699692,142.152390 172.310822,140.774155 172.028214,137.510513 
M102.824898,76.823601 
	C103.736374,81.292763 104.647850,85.761932 105.626106,90.558525 
	C112.946877,85.158989 113.072289,84.372414 109.163696,72.288849 
	C106.878250,72.288849 104.621048,72.288849 102.140961,72.288849 
	C102.395706,73.734482 102.592400,74.850708 102.824898,76.823601 
z"/>
<path fill="#535755" opacity="1.000000" stroke="none" 
	d="
M172.027039,137.944366 
	C172.310822,140.774155 171.699692,142.152390 168.858139,141.539307 
	C163.894104,140.468338 158.902222,139.526459 153.394852,138.425049 
	C156.287613,133.721741 159.128082,131.018204 164.401535,133.266083 
	C165.865219,133.889999 167.844879,133.385834 169.223969,134.100922 
	C170.425095,134.723709 171.113342,136.335648 172.027039,137.944366 
z"/>
<path fill="#4E5351" opacity="1.000000" stroke="none" 
	d="
M102.806999,76.395264 
	C102.592400,74.850708 102.395706,73.734482 102.140961,72.288849 
	C104.621048,72.288849 106.878250,72.288849 109.163696,72.288849 
	C113.072289,84.372414 112.946877,85.158989 105.626106,90.558525 
	C104.647850,85.761932 103.736374,81.292763 102.806999,76.395264 
z"/>
</svg>