<svg version="1.1" id="Layer_1" xmlns="http://www.w3.org/2000/svg" xmlns:xlink="http://www.w3.org/1999/xlink" x="0px" y="0px"
	 width="100%" viewBox="0 0 250 230" enable-background="new 0 0 250 230" xml:space="preserve">
<path fill="#FEFDF9" opacity="1.000000" stroke="none" 
	d="
M143.000000,231.000000 
	C95.333336,231.000000 48.166672,231.000000 1.000006,231.000000 
	C1.000004,154.333344 1.000004,77.666679 1.000002,1.000017 
	C84.333321,1.000011 167.666641,1.000011 250.999969,1.000005 
	C250.999985,77.666649 250.999985,154.333298 251.000000,230.999969 
	C215.166672,231.000000 179.333328,231.000000 143.000000,231.000000 
M126.514656,26.999674 
	C76.192810,27.737741 36.682644,67.845520 37.000553,117.867729 
	C37.312237,166.910385 77.625847,206.946884 126.750359,207.000610 
	C176.053482,207.054504 216.617828,167.215973 216.998505,118.367210 
	C217.391586,67.925934 178.052689,27.773352 126.514656,26.999674 
z"/>
<path fill="#464C4A" opacity="1.000000" stroke="none" 
	d="
M126.998520,26.999603 
	C178.052689,27.773352 217.391586,67.925934 216.998505,118.367210 
	C216.617828,167.215973 176.053482,207.054504 126.750359,207.000610 
	C77.625847,206.946884 37.312237,166.910385 37.000553,117.867729 
	C36.682644,67.845520 76.192810,27.737741 126.998520,26.999603 
M90.725037,71.988884 
	C82.927422,72.105675 81.950981,73.013817 82.135857,79.977318 
	C83.281036,123.110413 118.255600,159.208817 161.451477,161.841599 
	C171.200256,162.435791 172.003799,161.675064 172.010986,151.843918 
	C172.011826,150.677597 172.011383,149.511276 172.011368,148.344955 
	C172.011322,135.220245 171.637558,136.697388 159.128677,133.532364 
	C148.254242,130.780899 141.456573,133.557693 135.174667,141.590622 
	C134.453278,142.513077 131.768982,142.958405 130.676025,142.366669 
	C121.071846,137.166946 113.113457,129.936508 106.488029,121.311150 
	C99.186691,111.805840 99.288437,111.727486 107.751297,103.268318 
	C108.811859,102.208221 110.140366,101.303299 110.863007,100.048950 
	C111.624153,98.727791 112.327255,97.010391 112.152908,95.575844 
	C111.394669,89.337021 110.195435,83.152786 109.383041,76.919182 
	C108.922562,73.385880 106.914894,72.039543 103.669029,72.003952 
	C99.670662,71.960098 95.671486,71.990593 90.725037,71.988884 
z"/>
<path fill="#F9F9F5" opacity="1.000000" stroke="none" 
	d="
M91.198853,71.988922 
	C95.671486,71.990593 99.670662,71.960098 103.669029,72.003952 
	C106.914894,72.039543 108.922562,73.385880 109.383041,76.919182 
	C110.195435,83.152786 111.394669,89.337021 112.152908,95.575844 
	C112.327255,97.010391 111.624153,98.727791 110.863007,100.048950 
	C110.140366,101.303299 108.811859,102.208221 107.751297,103.268318 
	C99.288437,111.727486 99.186691,111.805840 106.488029,121.311150 
	C113.113457,129.936508 121.071846,137.166946 130.676025,142.366669 
	C131.768982,142.958405 134.453278,142.513077 135.174667,141.590622 
	C141.456573,133.557693 148.254242,130.780899 159.128677,133.532364 
	C171.637558,136.697388 172.011322,135.220245 172.011368,148.344955 
	C172.011383,149.511276 172.011826,150.677597 172.010986,151.843918 
	C172.003799,161.675064 171.200256,162.435791 161.451477,161.841599 
	C118.255600,159.208817 83.281036,123.110413 82.135857,79.977318 
	C81.950981,73.013817 82.927422,72.105675 91.198853,71.988922 
M161.246506,144.276413 
	C158.957657,143.956604 156.471939,144.099976 154.418213,143.227005 
	C149.031143,140.937103 146.352493,143.856964 143.271454,148.434723 
	C149.769196,149.709991 155.626968,150.859665 161.838898,152.078857 
	C161.838898,149.143066 161.838898,147.028885 161.246506,144.276413 
M101.385368,92.715065 
	C100.747238,89.188148 100.109100,85.661240 99.498474,82.286331 
	C96.860558,82.286331 94.599777,82.286331 91.808289,82.286331 
	C93.127258,88.527603 94.362427,94.372330 95.597588,100.217049 
	C96.127243,100.321533 96.656898,100.426010 97.186554,100.530495 
	C98.703621,98.159355 100.220695,95.788208 101.385368,92.715065 
z"/>
<path fill="#535754" opacity="1.000000" stroke="none" 
	d="
M161.542694,144.595551 
	C161.838898,147.028885 161.838898,149.143066 161.838898,152.078857 
	C155.626968,150.859665 149.769196,149.709991 143.271454,148.434723 
	C146.352493,143.856964 149.031143,140.937103 154.418213,143.227005 
	C156.471939,144.099976 158.957657,143.956604 161.542694,144.595551 
z"/>
<path fill="#4E5351" opacity="1.000000" stroke="none" 
	d="
M101.561569,93.066071 
	C100.220695,95.788208 98.703621,98.159355 97.186554,100.530495 
	C96.656898,100.426010 96.127243,100.321533 95.597588,100.217049 
	C94.362427,94.372330 93.127258,88.527603 91.808289,82.286331 
	C94.599777,82.286331 96.860558,82.286331 99.498474,82.286331 
	C100.109100,85.661240 100.747238,89.188148 101.561569,93.066071 
z"/>
</svg>