<?xml version="1.0" encoding="UTF-8" standalone="no"?>
<svg width="317.5mm" height="7.40833mm"
 xmlns="http://www.w3.org/2000/svg" xmlns:xlink="http://www.w3.org/1999/xlink"  version="1.2" baseProfile="tiny">
<desc>Created by HiQPdf</desc>
<defs>
</defs>
<g fill="none" stroke="black" stroke-width="1" fill-rule="evenodd" stroke-linecap="square" stroke-linejoin="bevel" >

<g fill="#000000" fill-opacity="1" stroke="#000000" stroke-opacity="1" stroke-width="1" stroke-linecap="square" stroke-linejoin="miter" stroke-miterlimit="2" transform="matrix(1,0,0,1,0,0)"
>
</g>

<g fill="#000000" fill-opacity="1" stroke="#000000" stroke-opacity="1" stroke-width="1" stroke-linecap="square" stroke-linejoin="miter" stroke-miterlimit="2" transform="matrix(1,0,0,1,0,0)"
>
</g>

<g fill="#000000" fill-opacity="1" stroke="#000000" stroke-opacity="1" stroke-width="1" stroke-linecap="square" stroke-linejoin="miter" stroke-miterlimit="2" transform="matrix(1,0,0,1,0,0)"
>
</g>

<g fill="#000000" fill-opacity="1" stroke="#000000" stroke-opacity="1" stroke-width="1" stroke-linecap="square" stroke-linejoin="miter" stroke-miterlimit="2" transform="matrix(1,0,0,1,0,0)"
>
</g>

<g fill="#000000" fill-opacity="1" stroke="#000000" stroke-opacity="1" stroke-width="1" stroke-linecap="square" stroke-linejoin="miter" stroke-miterlimit="2" transform="matrix(0.6,0,0,0.6,8,11)"
>
</g>

<g fill="#000000" fill-opacity="1" stroke="#000000" stroke-opacity="1" stroke-width="1" stroke-linecap="square" stroke-linejoin="miter" stroke-miterlimit="2" transform="matrix(0.6,0,0,0.6,-29.8,-26.2)"
>
</g>

<g fill="#292b29" fill-opacity="1" stroke="none" transform="matrix(-0.6,0,0,-0.6,57.8,53.6)"
>
<path vector-effect="none" fill-rule="nonzero" d="M63,61 L71.5201,70.3721 C72.2631,71.1894 73.528,71.2497 74.3453,70.5067 C74.3923,70.464 74.4372,70.4191 74.4799,70.3721 L83,61 L63,61"/>
</g>

<g fill="#000000" fill-opacity="1" stroke="#000000" stroke-opacity="1" stroke-width="1" stroke-linecap="square" stroke-linejoin="miter" stroke-miterlimit="2" transform="matrix(0.6,0,0,0.6,-29.8,-26.2)"
>
</g>

<g fill="#000000" fill-opacity="1" stroke="#000000" stroke-opacity="1" stroke-width="1" stroke-linecap="square" stroke-linejoin="miter" stroke-miterlimit="2" transform="matrix(0.6,0,0,0.6,8,11)"
>
</g>

<g fill="#000000" fill-opacity="1" stroke="#000000" stroke-opacity="1" stroke-width="1" stroke-linecap="square" stroke-linejoin="miter" stroke-miterlimit="2" transform="matrix(0.6,0,0,0.6,8,11)"
>
</g>

<g fill="#000000" fill-opacity="1" stroke="#000000" stroke-opacity="1" stroke-width="1" stroke-linecap="square" stroke-linejoin="miter" stroke-miterlimit="2" transform="matrix(0.6,0,0,0.6,8,11)"
>
</g>

<g fill="#000000" fill-opacity="1" stroke="#000000" stroke-opacity="1" stroke-width="1" stroke-linecap="square" stroke-linejoin="miter" stroke-miterlimit="2" transform="matrix(1,0,0,1,0,0)"
>
</g>

<g fill="#000000" fill-opacity="1" stroke="#000000" stroke-opacity="1" stroke-width="1" stroke-linecap="square" stroke-linejoin="miter" stroke-miterlimit="2" transform="matrix(1,0,0,1,0,0)"
>
</g>

<g fill="#000000" fill-opacity="1" stroke="#000000" stroke-opacity="1" stroke-width="1" stroke-linecap="square" stroke-linejoin="miter" stroke-miterlimit="2" transform="matrix(1,0,0,1,0,0)"
>
</g>

<g fill="#000000" fill-opacity="1" stroke="#000000" stroke-opacity="1" stroke-width="1" stroke-linecap="square" stroke-linejoin="miter" stroke-miterlimit="2" transform="matrix(1,0,0,1,0,0)"
>
</g>

<g fill="#000000" fill-opacity="1" stroke="#000000" stroke-opacity="1" stroke-width="1" stroke-linecap="square" stroke-linejoin="miter" stroke-miterlimit="2" transform="matrix(0.6,0,0,0.6,8,11)"
>
</g>

<g fill="#000000" fill-opacity="1" stroke="#000000" stroke-opacity="1" stroke-width="1" stroke-linecap="square" stroke-linejoin="miter" stroke-miterlimit="2" transform="matrix(0.6,0,0,0.6,8,11)"
>
</g>

<g fill="#000000" fill-opacity="1" stroke="#000000" stroke-opacity="1" stroke-width="1" stroke-linecap="square" stroke-linejoin="miter" stroke-miterlimit="2" transform="matrix(0.6,0,0,0.6,8,11)"
>
</g>

<g fill="#000000" fill-opacity="1" stroke="#000000" stroke-opacity="1" stroke-width="1" stroke-linecap="square" stroke-linejoin="miter" stroke-miterlimit="2" transform="matrix(0.6,0,0,0.6,8,11)"
>
</g>

<g fill="#000000" fill-opacity="1" stroke="#000000" stroke-opacity="1" stroke-width="1" stroke-linecap="square" stroke-linejoin="miter" stroke-miterlimit="2" transform="matrix(1,0,0,1,0,0)"
>
</g>

<g fill="#000000" fill-opacity="1" stroke="#000000" stroke-opacity="1" stroke-width="1" stroke-linecap="square" stroke-linejoin="miter" stroke-miterlimit="2" transform="matrix(1,0,0,1,0,0)"
>
</g>

<g fill="#000000" fill-opacity="1" stroke="#000000" stroke-opacity="1" stroke-width="1" stroke-linecap="square" stroke-linejoin="miter" stroke-miterlimit="2" transform="matrix(1,0,0,1,0,0)"
>
</g>

<g fill="#000000" fill-opacity="1" stroke="#000000" stroke-opacity="1" stroke-width="1" stroke-linecap="square" stroke-linejoin="miter" stroke-miterlimit="2" transform="matrix(1,0,0,1,0,0)"
>
</g>

<g fill="#000000" fill-opacity="1" stroke="#000000" stroke-opacity="1" stroke-width="1" stroke-linecap="square" stroke-linejoin="miter" stroke-miterlimit="2" transform="matrix(1,0,0,1,0,0)"
>
</g>

<g fill="#000000" fill-opacity="1" stroke="#000000" stroke-opacity="1" stroke-width="1" stroke-linecap="square" stroke-linejoin="miter" stroke-miterlimit="2" transform="matrix(1,0,0,1,0,0)"
>
</g>
</g>
</svg>
